<mxfile host="app.diagrams.net" modified="2023-10-09T13:35:37.036Z" agent="Mozilla/5.0 (Windows NT 10.0; Win64; x64) AppleWebKit/537.36 (KHTML, like Gecko) Chrome/116.0.0.0 Safari/537.36" etag="cuptsiyUUS-abWHjyfhI" version="22.0.4" type="google">
  <diagram name="Page-1" id="zN4zvlUKFIT2HUlr8E4T">
    <mxGraphModel grid="1" page="1" gridSize="10" guides="1" tooltips="1" connect="1" arrows="1" fold="1" pageScale="1" pageWidth="827" pageHeight="1169" math="0" shadow="0">
      <root>
        <mxCell id="0" />
        <mxCell id="1" parent="0" />
        <mxCell id="w9zwzZafsemPsu2VOnHf-1" value="Sucker" style="shape=umlLifeline;perimeter=lifelinePerimeter;whiteSpace=wrap;html=1;container=1;collapsible=0;recursiveResize=0;outlineConnect=0;rounded=1;shadow=0;comic=0;labelBackgroundColor=none;strokeWidth=1;fontFamily=Verdana;fontSize=12;align=center;" vertex="1" parent="1">
          <mxGeometry x="960" y="80" width="100" height="720" as="geometry" />
        </mxCell>
        <mxCell id="w9zwzZafsemPsu2VOnHf-2" value="Program.py" style="shape=umlLifeline;perimeter=lifelinePerimeter;whiteSpace=wrap;html=1;container=1;collapsible=0;recursiveResize=0;outlineConnect=0;rounded=1;shadow=0;comic=0;labelBackgroundColor=none;strokeWidth=1;fontFamily=Verdana;fontSize=12;align=center;" vertex="1" parent="1">
          <mxGeometry x="400" y="80" width="100" height="870" as="geometry" />
        </mxCell>
        <mxCell id="w9zwzZafsemPsu2VOnHf-3" value="" style="html=1;points=[];perimeter=orthogonalPerimeter;rounded=0;shadow=0;comic=0;labelBackgroundColor=none;strokeWidth=1;fontFamily=Verdana;fontSize=12;align=center;" vertex="1" parent="w9zwzZafsemPsu2VOnHf-2">
          <mxGeometry x="45" y="100" width="10" height="30" as="geometry" />
        </mxCell>
        <mxCell id="w9zwzZafsemPsu2VOnHf-4" value="" style="html=1;points=[];perimeter=orthogonalPerimeter;rounded=0;shadow=0;comic=0;labelBackgroundColor=none;strokeWidth=1;fontFamily=Verdana;fontSize=12;align=center;" vertex="1" parent="w9zwzZafsemPsu2VOnHf-2">
          <mxGeometry x="45" y="200" width="10" height="60" as="geometry" />
        </mxCell>
        <mxCell id="w9zwzZafsemPsu2VOnHf-5" value="" style="html=1;points=[];perimeter=orthogonalPerimeter;rounded=0;shadow=0;comic=0;labelBackgroundColor=none;strokeWidth=1;fontFamily=Verdana;fontSize=12;align=center;" vertex="1" parent="w9zwzZafsemPsu2VOnHf-2">
          <mxGeometry x="45" y="290" width="10" height="30" as="geometry" />
        </mxCell>
        <mxCell id="w9zwzZafsemPsu2VOnHf-6" value="" style="html=1;points=[];perimeter=orthogonalPerimeter;rounded=0;shadow=0;comic=0;labelBackgroundColor=none;strokeWidth=1;fontFamily=Verdana;fontSize=12;align=center;" vertex="1" parent="w9zwzZafsemPsu2VOnHf-2">
          <mxGeometry x="45" y="320" width="10" height="60" as="geometry" />
        </mxCell>
        <mxCell id="w9zwzZafsemPsu2VOnHf-7" value="" style="html=1;points=[];perimeter=orthogonalPerimeter;rounded=0;shadow=0;comic=0;labelBackgroundColor=none;strokeWidth=1;fontFamily=Verdana;fontSize=12;align=center;" vertex="1" parent="w9zwzZafsemPsu2VOnHf-2">
          <mxGeometry x="45" y="410" width="10" height="30" as="geometry" />
        </mxCell>
        <mxCell id="w9zwzZafsemPsu2VOnHf-8" value="" style="html=1;points=[];perimeter=orthogonalPerimeter;rounded=0;shadow=0;comic=0;labelBackgroundColor=none;strokeWidth=1;fontFamily=Verdana;fontSize=12;align=center;" vertex="1" parent="w9zwzZafsemPsu2VOnHf-2">
          <mxGeometry x="45" y="470" width="10" height="30" as="geometry" />
        </mxCell>
        <mxCell id="w9zwzZafsemPsu2VOnHf-9" value="" style="html=1;points=[];perimeter=orthogonalPerimeter;rounded=0;shadow=0;comic=0;labelBackgroundColor=none;strokeWidth=1;fontFamily=Verdana;fontSize=12;align=center;" vertex="1" parent="w9zwzZafsemPsu2VOnHf-2">
          <mxGeometry x="45" y="680" width="10" height="40" as="geometry" />
        </mxCell>
        <mxCell id="w9zwzZafsemPsu2VOnHf-10" value="" style="html=1;points=[];perimeter=orthogonalPerimeter;rounded=0;shadow=0;comic=0;labelBackgroundColor=none;strokeWidth=1;fontFamily=Verdana;fontSize=12;align=center;" vertex="1" parent="w9zwzZafsemPsu2VOnHf-2">
          <mxGeometry x="45" y="790" width="10" height="70" as="geometry" />
        </mxCell>
        <mxCell id="w9zwzZafsemPsu2VOnHf-11" value="Camera" style="shape=umlLifeline;perimeter=lifelinePerimeter;whiteSpace=wrap;html=1;container=1;collapsible=0;recursiveResize=0;outlineConnect=0;rounded=1;shadow=0;comic=0;labelBackgroundColor=none;strokeWidth=1;fontFamily=Verdana;fontSize=12;align=center;" vertex="1" parent="1">
          <mxGeometry x="540" y="80" width="100" height="860" as="geometry" />
        </mxCell>
        <mxCell id="w9zwzZafsemPsu2VOnHf-12" value="" style="html=1;points=[];perimeter=orthogonalPerimeter;rounded=0;shadow=0;comic=0;labelBackgroundColor=none;strokeWidth=1;fontFamily=Verdana;fontSize=12;align=center;" vertex="1" parent="w9zwzZafsemPsu2VOnHf-11">
          <mxGeometry x="45" y="260" width="10" height="30" as="geometry" />
        </mxCell>
        <mxCell id="w9zwzZafsemPsu2VOnHf-13" value="" style="html=1;points=[];perimeter=orthogonalPerimeter;rounded=0;shadow=0;comic=0;labelBackgroundColor=none;strokeWidth=1;fontFamily=Verdana;fontSize=12;align=center;" vertex="1" parent="w9zwzZafsemPsu2VOnHf-11">
          <mxGeometry x="45" y="380" width="10" height="30" as="geometry" />
        </mxCell>
        <mxCell id="w9zwzZafsemPsu2VOnHf-14" value="atPos" style="endArrow=classic;html=1;rounded=0;exitX=0.017;exitY=1.001;exitDx=0;exitDy=0;exitPerimeter=0;entryX=1.023;entryY=0.005;entryDx=0;entryDy=0;entryPerimeter=0;" edge="1" parent="w9zwzZafsemPsu2VOnHf-11" target="w9zwzZafsemPsu2VOnHf-8">
          <mxGeometry x="0.4944" y="-10" width="50" height="50" relative="1" as="geometry">
            <mxPoint x="185.5" y="470" as="sourcePoint" />
            <mxPoint x="-80" y="470" as="targetPoint" />
            <mxPoint as="offset" />
          </mxGeometry>
        </mxCell>
        <mxCell id="w9zwzZafsemPsu2VOnHf-15" value="DoBot" style="shape=umlLifeline;perimeter=lifelinePerimeter;whiteSpace=wrap;html=1;container=1;collapsible=0;recursiveResize=0;outlineConnect=0;rounded=1;shadow=0;comic=0;labelBackgroundColor=none;strokeWidth=1;fontFamily=Verdana;fontSize=12;align=center;" vertex="1" parent="1">
          <mxGeometry x="680" y="80" width="100" height="810" as="geometry" />
        </mxCell>
        <mxCell id="w9zwzZafsemPsu2VOnHf-16" value="" style="html=1;points=[];perimeter=orthogonalPerimeter;rounded=0;shadow=0;comic=0;labelBackgroundColor=none;strokeWidth=1;fontFamily=Verdana;fontSize=12;align=center;" vertex="1" parent="w9zwzZafsemPsu2VOnHf-15">
          <mxGeometry x="45" y="440" width="10" height="30" as="geometry" />
        </mxCell>
        <mxCell id="w9zwzZafsemPsu2VOnHf-17" value="" style="html=1;points=[];perimeter=orthogonalPerimeter;rounded=0;shadow=0;comic=0;labelBackgroundColor=none;strokeWidth=1;fontFamily=Verdana;fontSize=12;align=center;" vertex="1" parent="w9zwzZafsemPsu2VOnHf-15">
          <mxGeometry x="-235" y="530" width="10" height="40" as="geometry" />
        </mxCell>
        <mxCell id="w9zwzZafsemPsu2VOnHf-18" value="sucktion = On" style="endArrow=classic;html=1;rounded=0;exitX=-0.134;exitY=0.996;exitDx=0;exitDy=0;exitPerimeter=0;" edge="1" parent="w9zwzZafsemPsu2VOnHf-15">
          <mxGeometry x="0.1089" y="11" width="50" height="50" relative="1" as="geometry">
            <mxPoint x="322.6600000000001" y="530.8800000000001" as="sourcePoint" />
            <mxPoint x="-225" y="530" as="targetPoint" />
            <mxPoint as="offset" />
          </mxGeometry>
        </mxCell>
        <mxCell id="w9zwzZafsemPsu2VOnHf-19" value="" style="html=1;points=[];perimeter=orthogonalPerimeter;rounded=0;shadow=0;comic=0;labelBackgroundColor=none;strokeWidth=1;fontFamily=Verdana;fontSize=12;align=center;" vertex="1" parent="w9zwzZafsemPsu2VOnHf-15">
          <mxGeometry x="-235" y="610" width="10" height="40" as="geometry" />
        </mxCell>
        <mxCell id="w9zwzZafsemPsu2VOnHf-20" value="" style="html=1;points=[];perimeter=orthogonalPerimeter;rounded=0;shadow=0;comic=0;labelBackgroundColor=none;strokeWidth=1;fontFamily=Verdana;fontSize=12;align=center;" vertex="1" parent="w9zwzZafsemPsu2VOnHf-15">
          <mxGeometry x="45" y="570" width="10" height="40" as="geometry" />
        </mxCell>
        <mxCell id="w9zwzZafsemPsu2VOnHf-21" value="" style="html=1;points=[];perimeter=orthogonalPerimeter;rounded=0;shadow=0;comic=0;labelBackgroundColor=none;strokeWidth=1;fontFamily=Verdana;fontSize=12;align=center;" vertex="1" parent="w9zwzZafsemPsu2VOnHf-15">
          <mxGeometry x="325" y="500" width="10" height="30" as="geometry" />
        </mxCell>
        <mxCell id="w9zwzZafsemPsu2VOnHf-22" value="suckerOff" style="endArrow=classic;html=1;rounded=0;exitX=1.003;exitY=0.997;exitDx=0;exitDy=0;exitPerimeter=0;" edge="1" parent="w9zwzZafsemPsu2VOnHf-15" source="w9zwzZafsemPsu2VOnHf-19">
          <mxGeometry x="-0.1111" y="10" width="50" height="50" relative="1" as="geometry">
            <mxPoint x="100" y="650" as="sourcePoint" />
            <mxPoint x="325" y="650" as="targetPoint" />
            <mxPoint as="offset" />
          </mxGeometry>
        </mxCell>
        <mxCell id="w9zwzZafsemPsu2VOnHf-23" value="" style="html=1;points=[];perimeter=orthogonalPerimeter;rounded=0;shadow=0;comic=0;labelBackgroundColor=none;strokeWidth=1;fontFamily=Verdana;fontSize=12;align=center;" vertex="1" parent="w9zwzZafsemPsu2VOnHf-15">
          <mxGeometry x="325" y="650" width="10" height="30" as="geometry" />
        </mxCell>
        <mxCell id="w9zwzZafsemPsu2VOnHf-24" value="suckerOn" style="endArrow=classic;html=1;rounded=0;exitX=1.267;exitY=1;exitDx=0;exitDy=0;exitPerimeter=0;" edge="1" parent="w9zwzZafsemPsu2VOnHf-15" source="w9zwzZafsemPsu2VOnHf-8">
          <mxGeometry x="-0.0741" y="10" width="50" height="50" relative="1" as="geometry">
            <mxPoint x="55" y="500" as="sourcePoint" />
            <mxPoint x="325" y="500" as="targetPoint" />
            <mxPoint as="offset" />
          </mxGeometry>
        </mxCell>
        <mxCell id="w9zwzZafsemPsu2VOnHf-25" value="moveToDroppoint" style="endArrow=classic;html=1;rounded=0;exitX=1.009;exitY=0.991;exitDx=0;exitDy=0;exitPerimeter=0;entryX=0.077;entryY=0.001;entryDx=0;entryDy=0;entryPerimeter=0;" edge="1" parent="w9zwzZafsemPsu2VOnHf-15" source="w9zwzZafsemPsu2VOnHf-17" target="w9zwzZafsemPsu2VOnHf-20">
          <mxGeometry x="-0.1111" y="10" width="50" height="50" relative="1" as="geometry">
            <mxPoint x="-225" y="571" as="sourcePoint" />
            <mxPoint x="43" y="570" as="targetPoint" />
            <mxPoint as="offset" />
          </mxGeometry>
        </mxCell>
        <mxCell id="w9zwzZafsemPsu2VOnHf-26" value="atDroppoint" style="endArrow=classic;html=1;rounded=0;exitX=0.017;exitY=1.001;exitDx=0;exitDy=0;exitPerimeter=0;" edge="1" parent="w9zwzZafsemPsu2VOnHf-15">
          <mxGeometry x="0.4944" y="-10" width="50" height="50" relative="1" as="geometry">
            <mxPoint x="45" y="610" as="sourcePoint" />
            <mxPoint x="-225" y="610" as="targetPoint" />
            <mxPoint as="offset" />
          </mxGeometry>
        </mxCell>
        <mxCell id="w9zwzZafsemPsu2VOnHf-27" value="" style="html=1;points=[];perimeter=orthogonalPerimeter;rounded=0;shadow=0;comic=0;labelBackgroundColor=none;strokeWidth=1;fontFamily=Verdana;fontSize=12;align=center;" vertex="1" parent="w9zwzZafsemPsu2VOnHf-15">
          <mxGeometry x="45" y="720" width="10" height="30" as="geometry" />
        </mxCell>
        <mxCell id="w9zwzZafsemPsu2VOnHf-28" value="User" style="shape=umlLifeline;perimeter=lifelinePerimeter;whiteSpace=wrap;html=1;container=1;collapsible=0;recursiveResize=0;outlineConnect=0;rounded=1;shadow=0;comic=0;labelBackgroundColor=none;strokeWidth=1;fontFamily=Verdana;fontSize=12;align=center;" vertex="1" parent="1">
          <mxGeometry x="260" y="80" width="100" height="130" as="geometry" />
        </mxCell>
        <mxCell id="w9zwzZafsemPsu2VOnHf-29" value="" style="html=1;points=[];perimeter=orthogonalPerimeter;rounded=0;shadow=0;comic=0;labelBackgroundColor=none;strokeWidth=1;fontFamily=Verdana;fontSize=12;align=center;" vertex="1" parent="w9zwzZafsemPsu2VOnHf-28">
          <mxGeometry x="45" y="70" width="10" height="30" as="geometry" />
        </mxCell>
        <mxCell id="w9zwzZafsemPsu2VOnHf-30" value="startHoming" style="html=1;verticalAlign=bottom;endArrow=block;labelBackgroundColor=none;fontFamily=Verdana;fontSize=12;edgeStyle=elbowEdgeStyle;elbow=vertical;entryX=0.26;entryY=-0.007;entryDx=0;entryDy=0;entryPerimeter=0;" edge="1" parent="1" source="w9zwzZafsemPsu2VOnHf-3" target="w9zwzZafsemPsu2VOnHf-31">
          <mxGeometry x="-0.3773" relative="1" as="geometry">
            <mxPoint x="510" y="220" as="sourcePoint" />
            <Array as="points">
              <mxPoint x="650" y="210" />
              <mxPoint x="700" y="238" />
              <mxPoint x="620" y="210" />
              <mxPoint x="460" y="220" />
            </Array>
            <mxPoint x="720" y="222" as="targetPoint" />
            <mxPoint as="offset" />
          </mxGeometry>
        </mxCell>
        <mxCell id="w9zwzZafsemPsu2VOnHf-31" value="" style="html=1;points=[];perimeter=orthogonalPerimeter;rounded=0;shadow=0;comic=0;labelBackgroundColor=none;strokeWidth=1;fontFamily=Verdana;fontSize=12;align=center;" vertex="1" parent="1">
          <mxGeometry x="725" y="210" width="10" height="70" as="geometry" />
        </mxCell>
        <mxCell id="w9zwzZafsemPsu2VOnHf-32" value="Start program" style="html=1;verticalAlign=bottom;endArrow=block;labelBackgroundColor=none;fontFamily=Verdana;fontSize=12;edgeStyle=elbowEdgeStyle;elbow=vertical;entryX=-0.004;entryY=0.001;entryDx=0;entryDy=0;entryPerimeter=0;exitX=0.97;exitY=0.983;exitDx=0;exitDy=0;exitPerimeter=0;" edge="1" parent="1" source="w9zwzZafsemPsu2VOnHf-29" target="w9zwzZafsemPsu2VOnHf-3">
          <mxGeometry x="-0.1466" relative="1" as="geometry">
            <mxPoint x="340" y="180" as="sourcePoint" />
            <mxPoint x="447" y="180.1400000000001" as="targetPoint" />
            <Array as="points">
              <mxPoint x="390" y="180" />
            </Array>
            <mxPoint as="offset" />
          </mxGeometry>
        </mxCell>
        <mxCell id="w9zwzZafsemPsu2VOnHf-33" value="Actor" style="shape=umlActor;verticalLabelPosition=bottom;verticalAlign=top;html=1;outlineConnect=0;" vertex="1" parent="1">
          <mxGeometry x="295" width="30" height="60" as="geometry" />
        </mxCell>
        <mxCell id="w9zwzZafsemPsu2VOnHf-34" value="doneHoming" style="endArrow=classic;html=1;rounded=0;exitX=0.017;exitY=1.001;exitDx=0;exitDy=0;exitPerimeter=0;" edge="1" parent="1" source="w9zwzZafsemPsu2VOnHf-31">
          <mxGeometry x="0.4944" y="-10" width="50" height="50" relative="1" as="geometry">
            <mxPoint x="720" y="240" as="sourcePoint" />
            <mxPoint x="455" y="280" as="targetPoint" />
            <mxPoint as="offset" />
          </mxGeometry>
        </mxCell>
        <mxCell id="w9zwzZafsemPsu2VOnHf-35" value="startDetecting" style="endArrow=classic;html=1;rounded=0;exitX=1.084;exitY=1.004;exitDx=0;exitDy=0;exitPerimeter=0;" edge="1" parent="1" source="w9zwzZafsemPsu2VOnHf-4">
          <mxGeometry x="0.0031" y="8" width="50" height="50" relative="1" as="geometry">
            <mxPoint x="305" y="320" as="sourcePoint" />
            <mxPoint x="585" y="340" as="targetPoint" />
            <mxPoint as="offset" />
          </mxGeometry>
        </mxCell>
        <mxCell id="w9zwzZafsemPsu2VOnHf-36" value="checkPosition(x,y)" style="endArrow=classic;html=1;rounded=0;" edge="1" parent="1">
          <mxGeometry y="10" width="50" height="50" relative="1" as="geometry">
            <mxPoint x="455" y="460" as="sourcePoint" />
            <mxPoint x="585" y="460" as="targetPoint" />
            <mxPoint as="offset" />
          </mxGeometry>
        </mxCell>
        <mxCell id="w9zwzZafsemPsu2VOnHf-37" value="give Position(x,y)" style="endArrow=classic;html=1;rounded=0;" edge="1" parent="1">
          <mxGeometry width="50" height="50" relative="1" as="geometry">
            <mxPoint x="585" y="489" as="sourcePoint" />
            <mxPoint x="455" y="489" as="targetPoint" />
          </mxGeometry>
        </mxCell>
        <mxCell id="w9zwzZafsemPsu2VOnHf-38" value="moveToPosition(x,y), moveToPosition(z)" style="endArrow=classic;html=1;rounded=0;" edge="1" parent="1">
          <mxGeometry x="0.0037" y="10" width="50" height="50" relative="1" as="geometry">
            <mxPoint x="455.5" y="520" as="sourcePoint" />
            <mxPoint x="724.5" y="520" as="targetPoint" />
            <mxPoint as="offset" />
          </mxGeometry>
        </mxCell>
        <mxCell id="w9zwzZafsemPsu2VOnHf-39" value="sucktion = Off" style="endArrow=classic;html=1;rounded=0;exitX=-0.134;exitY=0.996;exitDx=0;exitDy=0;exitPerimeter=0;" edge="1" parent="1">
          <mxGeometry x="0.1089" y="11" width="50" height="50" relative="1" as="geometry">
            <mxPoint x="1003.83" y="760.8800000000001" as="sourcePoint" />
            <mxPoint x="456.17" y="760" as="targetPoint" />
            <mxPoint as="offset" />
          </mxGeometry>
        </mxCell>
        <mxCell id="w9zwzZafsemPsu2VOnHf-40" value="moveToPos0" style="endArrow=classic;html=1;rounded=0;exitX=1.009;exitY=0.991;exitDx=0;exitDy=0;exitPerimeter=0;entryX=0.077;entryY=0.001;entryDx=0;entryDy=0;entryPerimeter=0;" edge="1" parent="1">
          <mxGeometry x="-0.1111" y="10" width="50" height="50" relative="1" as="geometry">
            <mxPoint x="454" y="800" as="sourcePoint" />
            <mxPoint x="725" y="800" as="targetPoint" />
            <mxPoint as="offset" />
          </mxGeometry>
        </mxCell>
        <mxCell id="w9zwzZafsemPsu2VOnHf-41" value="atPos0" style="endArrow=classic;html=1;rounded=0;exitX=0.017;exitY=1.001;exitDx=0;exitDy=0;exitPerimeter=0;" edge="1" parent="1">
          <mxGeometry x="0.4944" y="-10" width="50" height="50" relative="1" as="geometry">
            <mxPoint x="725" y="830" as="sourcePoint" />
            <mxPoint x="455" y="830" as="targetPoint" />
            <mxPoint as="offset" />
          </mxGeometry>
        </mxCell>
        <mxCell id="w9zwzZafsemPsu2VOnHf-42" value="" style="html=1;points=[];perimeter=orthogonalPerimeter;rounded=0;shadow=0;comic=0;labelBackgroundColor=none;strokeWidth=1;fontFamily=Verdana;fontSize=12;align=center;" vertex="1" parent="1">
          <mxGeometry x="445" y="830" width="10" height="40" as="geometry" />
        </mxCell>
        <mxCell id="w9zwzZafsemPsu2VOnHf-43" value="startDetecting" style="endArrow=classic;html=1;rounded=0;exitX=1.084;exitY=1.004;exitDx=0;exitDy=0;exitPerimeter=0;" edge="1" parent="1">
          <mxGeometry x="0.0031" y="8" width="50" height="50" relative="1" as="geometry">
            <mxPoint x="455" y="939.39" as="sourcePoint" />
            <mxPoint x="584" y="939.39" as="targetPoint" />
            <mxPoint as="offset" />
          </mxGeometry>
        </mxCell>
        <mxCell id="w9zwzZafsemPsu2VOnHf-44" value="" style="html=1;points=[];perimeter=orthogonalPerimeter;rounded=0;shadow=0;comic=0;labelBackgroundColor=none;strokeWidth=1;fontFamily=Verdana;fontSize=12;align=center;" vertex="1" parent="1">
          <mxGeometry x="584" y="940" width="10" height="30" as="geometry" />
        </mxCell>
        <mxCell id="w9zwzZafsemPsu2VOnHf-45" value="ObjectFound" style="endArrow=classic;html=1;rounded=0;exitX=-0.067;exitY=1.019;exitDx=0;exitDy=0;exitPerimeter=0;" edge="1" parent="1" source="w9zwzZafsemPsu2VOnHf-12">
          <mxGeometry x="0.0006" width="50" height="50" relative="1" as="geometry">
            <mxPoint x="500" y="380" as="sourcePoint" />
            <mxPoint x="455" y="370" as="targetPoint" />
            <mxPoint as="offset" />
          </mxGeometry>
        </mxCell>
      </root>
    </mxGraphModel>
  </diagram>
</mxfile>
